# xmcd CD database file
#
# Track frame offsets:
#	150
#	20392
#	37515
#	60737
#	73907
#	93455
#	119742
#
# Disc length: 4440 seconds
#
# Revision: 0
# Processed by: cddbd v1.5PL3 Copyright (c) Steve Scherf et al.
# Submitted via: CDex 1.51
#
DISCID=5a115607
DTITLE=奥村愛子 - いっさいがっさい
DYEAR=2004
DGENRE=Jazz
TTITLE0=いっさいがっさい（密命ヴァージョン）
TTITLE1=いろのない日記帳
TTITLE2=わたしはずるい
TTITLE3=ドドンパ
TTITLE4=メトロノーム
TTITLE5=他人の関係
TTITLE6=Data
EXTD=YEAR: 2004
EXTT0=
EXTT1=
EXTT2=
EXTT3=
EXTT4=
EXTT5=
EXTT6=
PLAYORDER=
